<?xml version="1.0" encoding="UTF-8" standalone="no"?>
<!-- Created with Inkscape (http://www.inkscape.org/) -->

<svg
   version="1.1"
   id="svg1"
   width="805.69879"
   height="131.84"
   viewBox="0 0 805.69879 131.84"
   sodipodi:docname="Ex_Simulation.svg"
   inkscape:version="1.3.2 (091e20e, 2023-11-25)"
   xmlns:inkscape="http://www.inkscape.org/namespaces/inkscape"
   xmlns:sodipodi="http://sodipodi.sourceforge.net/DTD/sodipodi-0.dtd"
   xmlns="http://www.w3.org/2000/svg"
   xmlns:svg="http://www.w3.org/2000/svg">
  <defs
     id="defs1">
    <clipPath
       clipPathUnits="userSpaceOnUse"
       id="clipPath1">
      <path
         d="M 2.0945467,0 H 975.53449 V 131.84 H 2.0945467 Z"
         id="path1" />
    </clipPath>
    <clipPath
       clipPathUnits="userSpaceOnUse"
       id="clipPath3">
      <path
         d="M 0,0 H 3041.667 V 410.146 H 0 Z"
         transform="scale(0.33402741)"
         clip-rule="evenodd"
         id="path3" />
    </clipPath>
    <clipPath
       clipPathUnits="userSpaceOnUse"
       id="clipPath5">
      <path
         d="M 0,0 H 3041.667 V 410.146 H 0 Z"
         transform="matrix(0.33402741,0,0,0.33402741,-671,-65)"
         clip-rule="evenodd"
         id="path5" />
    </clipPath>
    <clipPath
       clipPathUnits="userSpaceOnUse"
       id="clipPath7">
      <path
         d="M 0,0 H 3041.667 V 410.146 H 0 Z"
         transform="matrix(0.33402741,0,0,0.33402741,-707.76,-65)"
         clip-rule="evenodd"
         id="path7" />
    </clipPath>
    <clipPath
       clipPathUnits="userSpaceOnUse"
       id="clipPath9">
      <path
         d="M 0,0 H 3041.667 V 410.146 H 0 Z"
         transform="matrix(0.33402741,0,0,0.33402741,-563.15,-24.5)"
         clip-rule="evenodd"
         id="path9" />
    </clipPath>
    <clipPath
       clipPathUnits="userSpaceOnUse"
       id="clipPath12">
      <path
         d="M 0,0 H 3041.667 V 410.146 H 0 Z"
         transform="matrix(0.33403415,0,0,0.33403415,-969.99737,-64.999808)"
         clip-rule="evenodd"
         id="path12" />
    </clipPath>
    <clipPath
       clipPathUnits="userSpaceOnUse"
       id="clipPath14">
      <path
         d="M 0,0 H 3041.667 V 410.146 H 0 Z"
         transform="matrix(0.33403415,0,0,0.33403415,-1002.7573,-64.999808)"
         clip-rule="evenodd"
         id="path14" />
    </clipPath>
    <clipPath
       clipPathUnits="userSpaceOnUse"
       id="clipPath16">
      <path
         d="M 0,0 H 3041.667 V 410.146 H 0 Z"
         transform="matrix(0.33403415,0,0,0.33403415,-969.99737,-64.999808)"
         clip-rule="evenodd"
         id="path16" />
    </clipPath>
    <clipPath
       clipPathUnits="userSpaceOnUse"
       id="clipPath18">
      <path
         d="M 0,0 H 3041.667 V 410.146 H 0 Z"
         transform="matrix(0.33402741,0,0,0.33402741,-510,-65.000003)"
         clip-rule="evenodd"
         id="path18" />
    </clipPath>
    <clipPath
       clipPathUnits="userSpaceOnUse"
       id="clipPath20">
      <path
         d="M 0,0 H 3041.667 V 410.146 H 0 Z"
         transform="matrix(0.33402741,0,0,0.33402741,-548.76,-65.000003)"
         clip-rule="evenodd"
         id="path20" />
    </clipPath>
    <clipPath
       clipPathUnits="userSpaceOnUse"
       id="clipPath22">
      <path
         d="M 0,0 H 3041.667 V 410.146 H 0 Z"
         transform="matrix(0.33402741,0,0,0.33402741,-403,-25.000003)"
         clip-rule="evenodd"
         id="path22" />
    </clipPath>
    <clipPath
       clipPathUnits="userSpaceOnUse"
       id="clipPath23">
      <path
         d="M 0,0 H 3041.667 V 410.146 H 0 Z"
         transform="matrix(0.23999999,0,0,0.23999999,-311.17949,-43.828694)"
         clip-rule="evenodd"
         id="path23" />
    </clipPath>
    <clipPath
       clipPathUnits="userSpaceOnUse"
       id="clipPath25">
      <path
         d="M 0,0 H 3041.667 V 410.146 H 0 Z"
         transform="matrix(0.33402741,0,0,0.33402741,-350.00001,-31)"
         clip-rule="evenodd"
         id="path25" />
    </clipPath>
    <clipPath
       clipPathUnits="userSpaceOnUse"
       id="clipPath27">
      <path
         d="M 0,0 H 3041.667 V 410.146 H 0 Z"
         transform="matrix(0.33402741,0,0,0.33402741,-388.76001,-65.000001)"
         clip-rule="evenodd"
         id="path27" />
    </clipPath>
    <clipPath
       clipPathUnits="userSpaceOnUse"
       id="clipPath29">
      <path
         d="M 0,0 H 3041.667 V 410.146 H 0 Z"
         transform="matrix(0.33402741,0,0,0.33402741,-190.00001,-13)"
         clip-rule="evenodd"
         id="path29" />
    </clipPath>
    <clipPath
       clipPathUnits="userSpaceOnUse"
       id="clipPath31">
      <path
         d="M 0,0 H 3041.667 V 410.146 H 0 Z"
         transform="matrix(0.33402741,0,0,0.33402741,-190.00001,-13)"
         clip-rule="evenodd"
         id="path31" />
    </clipPath>
    <clipPath
       clipPathUnits="userSpaceOnUse"
       id="clipPath34">
      <path
         d="M 0,0 H 3041.667 V 410.146 H 0 Z"
         transform="matrix(0.23999999,0,0,0.23999999,-152.8168,-32.332693)"
         clip-rule="evenodd"
         id="path34" />
    </clipPath>
    <clipPath
       clipPathUnits="userSpaceOnUse"
       id="clipPath36">
      <path
         d="M 0,0 H 3041.667 V 410.146 H 0 Z"
         transform="matrix(0.33402741,0,0,0.33402741,-350.00001,-106.00001)"
         clip-rule="evenodd"
         id="path36" />
    </clipPath>
    <clipPath
       clipPathUnits="userSpaceOnUse"
       id="clipPath38">
      <path
         d="M 0,0 H 3041.667 V 410.146 H 0 Z"
         transform="matrix(0.33402741,0,0,0.33402741,-388.76001,-65.000001)"
         clip-rule="evenodd"
         id="path38" />
    </clipPath>
    <clipPath
       clipPathUnits="userSpaceOnUse"
       id="clipPath40">
      <path
         d="M 0,0 H 3041.667 V 410.146 H 0 Z"
         transform="matrix(0.33402741,0,0,0.33402741,-190.00001,-87.000001)"
         clip-rule="evenodd"
         id="path40" />
    </clipPath>
    <clipPath
       clipPathUnits="userSpaceOnUse"
       id="clipPath42">
      <path
         d="M 0,0 H 3041.667 V 410.146 H 0 Z"
         transform="matrix(0.33402741,0,0,0.33402741,-190.00001,-87.000001)"
         clip-rule="evenodd"
         id="path42" />
    </clipPath>
    <clipPath
       clipPathUnits="userSpaceOnUse"
       id="clipPath43">
      <path
         d="M 0,0 H 3041.667 V 410.146 H 0 Z"
         transform="matrix(0.23999999,0,0,0.23999999,-153.0526,-85.501991)"
         clip-rule="evenodd"
         id="path43" />
    </clipPath>
    <clipPath
       clipPathUnits="userSpaceOnUse"
       id="clipPath45">
      <path
         d="M 0,0 H 3041.667 V 410.146 H 0 Z"
         transform="matrix(0.33402741,0,0,0.33402741,-150.00001,-65.000001)"
         clip-rule="evenodd"
         id="path45" />
    </clipPath>
    <clipPath
       clipPathUnits="userSpaceOnUse"
       id="clipPath47">
      <path
         d="M 0,0 H 3041.667 V 410.146 H 0 Z"
         transform="matrix(0.33402741,0,0,0.33402741,-187.76001,-31)"
         clip-rule="evenodd"
         id="path47" />
    </clipPath>
    <clipPath
       clipPathUnits="userSpaceOnUse"
       id="clipPath49">
      <path
         d="M 0,0 H 3041.667 V 410.146 H 0 Z"
         transform="matrix(0.33402741,0,0,0.33402741,-150.00001,-65.000001)"
         clip-rule="evenodd"
         id="path49" />
    </clipPath>
    <clipPath
       clipPathUnits="userSpaceOnUse"
       id="clipPath51">
      <path
         d="M 0,0 H 3041.667 V 410.146 H 0 Z"
         transform="matrix(0.33402741,0,0,0.33402741,-187.76001,-106.00001)"
         clip-rule="evenodd"
         id="path51" />
    </clipPath>
    <clipPath
       clipPathUnits="userSpaceOnUse"
       id="clipPath53">
      <path
         d="M 0,0 H 3041.667 V 410.146 H 0 Z"
         transform="matrix(0.33402741,0,0,0.33402741,-150.00001,-65.000001)"
         clip-rule="evenodd"
         id="path53" />
    </clipPath>
    <clipPath
       clipPathUnits="userSpaceOnUse"
       id="clipPath54">
      <path
         d="M 0,0 H 3041.667 V 410.146 H 0 Z"
         transform="matrix(0.23999999,0,0,0.23999999,-39.540201,-43.828694)"
         clip-rule="evenodd"
         id="path54" />
    </clipPath>
    <clipPath
       clipPathUnits="userSpaceOnUse"
       id="clipPath56">
      <path
         d="M 0,0 H 3041.667 V 410.146 H 0 Z"
         transform="matrix(0.33402741,0,0,0.33402741,-8.6000025,-64.790001)"
         clip-rule="evenodd"
         id="path56" />
    </clipPath>
    <clipPath
       clipPathUnits="userSpaceOnUse"
       id="clipPath58">
      <path
         d="M 0,0 H 3041.667 V 410.146 H 0 Z"
         transform="matrix(0.33402741,0,0,0.33402741,-47.370004,-64.790001)"
         clip-rule="evenodd"
         id="path58" />
    </clipPath>
    <clipPath
       clipPathUnits="userSpaceOnUse"
       id="clipPath59">
      <path
         d="M 0,0 H 3041.667 V 410.146 H 0 Z"
         transform="matrix(0.23999999,0,0,0.23999999,-113.5236,-77.598394)"
         clip-rule="evenodd"
         id="path59" />
    </clipPath>
  </defs>
  <sodipodi:namedview
     id="namedview1"
     pagecolor="#ffffff"
     bordercolor="#000000"
     borderopacity="0.25"
     inkscape:showpageshadow="2"
     inkscape:pageopacity="0.0"
     inkscape:pagecheckerboard="0"
     inkscape:deskcolor="#d1d1d1"
     inkscape:zoom="0.94700403"
     inkscape:cx="402.32142"
     inkscape:cy="65.469627"
     inkscape:window-width="2560"
     inkscape:window-height="1359"
     inkscape:window-x="0"
     inkscape:window-y="25"
     inkscape:window-maximized="0"
     inkscape:current-layer="g1">
    <inkscape:page
       x="0"
       y="0"
       inkscape:label="1"
       id="page1"
       width="805.69879"
       height="131.84"
       margin="0"
       bleed="0" />
  </sodipodi:namedview>
  <g
     id="g1"
     inkscape:groupmode="layer"
     inkscape:label="1"
     clip-path="url(#clipPath1)">
    <path
       id="path2"
       d="M 0,0 H 1016 V 137 H 0 Z"
       style="fill:#ffffff;fill-opacity:1;fill-rule:nonzero;stroke:none"
       transform="scale(0.95800522)"
       clip-path="url(#clipPath3)" />
    <path
       id="path4"
       d="M 0,0 H 20 19 30.76"
       style="fill:none;stroke:#000000;stroke-width:2;stroke-linecap:butt;stroke-linejoin:miter;stroke-miterlimit:10;stroke-dasharray:none;stroke-opacity:1"
       transform="matrix(0.95800522,0,0,0.95800522,642.8215,62.270339)"
       clip-path="url(#clipPath5)" />
    <path
       id="path6"
       d="M 0,0 -8,4 -6,0 -8,-4 Z"
       style="fill:#000000;fill-opacity:1;fill-rule:nonzero;stroke:#000000;stroke-width:2;stroke-linecap:butt;stroke-linejoin:miter;stroke-miterlimit:10;stroke-dasharray:none;stroke-opacity:1"
       transform="matrix(0.95800522,0,0,0.95800522,678.03777,62.270339)"
       clip-path="url(#clipPath7)" />
    <path
       id="path8"
       d="m 0,0 h 95.7 c 0.798,0 1.588,0.078 2.37,0.233 0.783,0.156 1.542,0.387 2.279,0.692 0.737,0.305 1.438,0.679 2.101,1.123 0.663,0.443 1.277,0.947 1.841,1.511 0.564,0.564 1.068,1.177 1.511,1.841 0.443,0.663 0.818,1.363 1.123,2.1 0.305,0.737 0.536,1.497 0.691,2.28 0.156,0.782 0.234,1.572 0.234,2.37 v 56.7 c 0,0.798 -0.078,1.588 -0.234,2.37 -0.155,0.783 -0.386,1.543 -0.691,2.28 -0.305,0.737 -0.68,1.437 -1.123,2.1 -0.443,0.663 -0.947,1.277 -1.511,1.841 -0.564,0.564 -1.178,1.068 -1.841,1.511 -0.663,0.444 -1.364,0.818 -2.101,1.123 -0.737,0.305 -1.496,0.536 -2.279,0.692 C 97.288,80.922 96.498,81 95.7,81 H 0 c -0.798,0 -1.588,-0.078 -2.37,-0.233 -0.783,-0.156 -1.543,-0.387 -2.28,-0.692 -0.737,-0.305 -1.437,-0.679 -2.1,-1.123 -0.664,-0.443 -1.277,-0.947 -1.841,-1.511 -0.565,-0.564 -1.068,-1.178 -1.511,-1.841 -0.444,-0.663 -0.818,-1.363 -1.123,-2.1 -0.306,-0.737 -0.536,-1.497 -0.692,-2.28 -0.155,-0.782 -0.233,-1.572 -0.233,-2.37 v -56.7 c 0,-0.798 0.078,-1.588 0.233,-2.37 0.156,-0.783 0.386,-1.543 0.692,-2.28 0.305,-0.737 0.679,-1.437 1.123,-2.1 C -9.659,4.736 -9.156,4.123 -8.591,3.559 -8.027,2.995 -7.414,2.491 -6.75,2.048 -6.087,1.604 -5.387,1.23 -4.65,0.925 -3.913,0.62 -3.153,0.389 -2.37,0.233 -1.588,0.078 -0.798,0 0,0 Z"
       style="fill:#ffffff;fill-opacity:1;fill-rule:nonzero;stroke:#000000;stroke-width:2;stroke-linecap:butt;stroke-linejoin:miter;stroke-miterlimit:4;stroke-dasharray:none;stroke-opacity:1"
       transform="matrix(0.95800522,0,0,0.95800522,539.50064,23.471128)"
       clip-path="url(#clipPath9)" />
    <text
       id="text9"
       xml:space="preserve"
       transform="matrix(1.3333333,0,0,1.3333333,553.75733,67.359996)"><tspan
         style="font-variant:normal;font-weight:normal;font-size:11.496px;font-family:Helvetica;writing-mode:lr-tb;fill:#000000;fill-opacity:1;fill-rule:nonzero;stroke:none"
         x="0 9.5762577 15.969785 22.363312"
         y="0"
         sodipodi:role="line"
         id="tspan9">Mode</tspan><tspan
         style="font-variant:normal;font-weight:normal;font-stretch:normal;font-size:11.496px;font-family:Arial;writing-mode:lr-tb;fill:#000000;fill-opacity:1;fill-rule:nonzero;stroke:none"
         x="28.75684"
         y="0"
         id="tspan10">l</tspan><tspan
         style="font-variant:normal;font-weight:normal;font-size:11.496px;font-family:Helvetica;writing-mode:lr-tb;fill:#000000;fill-opacity:1;fill-rule:nonzero;stroke:none"
         x="31.308952 33.862995 36.417038 42.810566"
         y="0"
         sodipodi:role="line"
         id="tspan11">ling</tspan></text>
    <path
       id="path11"
       d="M 0,0 H 20 15 26.76"
       style="fill:none;stroke:#000000;stroke-width:2;stroke-linecap:butt;stroke-linejoin:miter;stroke-miterlimit:10;stroke-dasharray:none;stroke-opacity:1"
       transform="matrix(0.95800784,0,0,0.95800784,775.93175,62.270336)"
       clip-path="url(#clipPath12)" />
    <path
       id="path13"
       d="M 0,0 -8,4 -6,0 -8,-4 Z"
       style="fill:#000000;fill-opacity:1;fill-rule:nonzero;stroke:none"
       transform="matrix(0.95800784,0,0,0.95800784,807.31601,62.270336)"
       clip-path="url(#clipPath14)" />
    <path
       id="path15"
       d="m 0,0 c 0,1.638 -0.08,3.271 -0.241,4.901 -0.16,1.63 -0.4,3.247 -0.72,4.854 -0.319,1.606 -0.717,3.192 -1.192,4.759 -0.475,1.567 -1.027,3.107 -1.653,4.62 -0.627,1.513 -1.326,2.992 -2.098,4.436 -0.772,1.444 -1.613,2.847 -2.523,4.209 -0.909,1.361 -1.884,2.675 -2.923,3.941 -1.038,1.266 -2.137,2.477 -3.295,3.635 -1.158,1.158 -2.37,2.257 -3.635,3.296 -1.266,1.038 -2.58,2.013 -3.942,2.922 -1.361,0.91 -2.764,1.751 -4.208,2.523 -1.444,0.772 -2.923,1.471 -4.436,2.098 -1.513,0.627 -3.053,1.178 -4.62,1.653 -1.567,0.475 -3.153,0.873 -4.76,1.192 -1.606,0.32 -3.223,0.56 -4.853,0.72 C -46.729,49.92 -48.362,50 -50,50 c -1.638,0 -3.271,-0.08 -4.901,-0.241 -1.63,-0.16 -3.247,-0.4 -4.854,-0.72 -1.606,-0.319 -3.192,-0.717 -4.759,-1.192 -1.567,-0.475 -3.107,-1.026 -4.62,-1.653 -1.513,-0.627 -2.992,-1.326 -4.436,-2.098 -1.444,-0.772 -2.847,-1.613 -4.209,-2.523 -1.361,-0.909 -2.675,-1.884 -3.941,-2.922 -1.265,-1.039 -2.477,-2.138 -3.635,-3.296 -1.158,-1.158 -2.257,-2.369 -3.296,-3.635 -1.038,-1.266 -2.013,-2.58 -2.923,-3.941 -0.909,-1.362 -1.75,-2.765 -2.522,-4.209 -0.772,-1.444 -1.471,-2.923 -2.098,-4.436 -0.627,-1.513 -1.178,-3.053 -1.653,-4.62 -0.476,-1.567 -0.873,-3.153 -1.192,-4.759 -0.32,-1.607 -0.56,-3.224 -0.72,-4.854 C -99.92,3.271 -100,1.638 -100,0 c 0,-1.638 0.08,-3.271 0.241,-4.901 0.16,-1.63 0.4,-3.247 0.72,-4.854 0.319,-1.606 0.716,-3.192 1.192,-4.759 0.475,-1.567 1.026,-3.107 1.653,-4.62 0.627,-1.513 1.326,-2.992 2.098,-4.436 0.772,-1.444 1.613,-2.847 2.522,-4.209 0.91,-1.361 1.885,-2.675 2.923,-3.941 1.039,-1.266 2.138,-2.477 3.296,-3.635 1.158,-1.158 2.37,-2.257 3.635,-3.296 1.266,-1.038 2.58,-2.013 3.941,-2.922 1.362,-0.91 2.765,-1.751 4.209,-2.523 1.444,-0.772 2.923,-1.471 4.436,-2.098 1.513,-0.627 3.053,-1.178 4.62,-1.653 1.567,-0.475 3.153,-0.873 4.759,-1.192 1.607,-0.32 3.224,-0.56 4.854,-0.72 1.63,-0.161 3.263,-0.241 4.901,-0.241 1.638,0 3.271,0.08 4.901,0.241 1.63,0.16 3.247,0.4 4.853,0.72 1.607,0.319 3.193,0.717 4.76,1.192 1.567,0.475 3.107,1.026 4.62,1.653 1.513,0.627 2.992,1.326 4.436,2.098 1.444,0.772 2.847,1.613 4.208,2.523 1.362,0.909 2.676,1.884 3.942,2.922 1.265,1.039 2.477,2.138 3.635,3.296 1.158,1.158 2.257,2.369 3.295,3.635 1.039,1.266 2.014,2.58 2.923,3.941 0.91,1.362 1.751,2.765 2.523,4.209 0.772,1.444 1.471,2.923 2.098,4.436 0.627,1.513 1.178,3.053 1.653,4.62 0.475,1.567 0.873,3.153 1.192,4.759 0.32,1.607 0.56,3.224 0.72,4.854 C -0.08,-3.271 0,-1.638 0,0 Z"
       style="fill:#ffffff;fill-opacity:1;fill-rule:nonzero;stroke:#000000;stroke-width:2;stroke-linecap:butt;stroke-linejoin:miter;stroke-miterlimit:4;stroke-dasharray:none;stroke-opacity:1"
       transform="matrix(0.95800784,0,0,0.95800784,775.93175,62.270336)"
       clip-path="url(#clipPath16)" />
    <text
       id="text16"
       xml:space="preserve"
       transform="matrix(1.3333333,0,0,1.3333333,701.1324,58.438263)"><tspan
         style="font-variant:normal;font-weight:normal;font-size:11.496px;font-family:Helvetica;writing-mode:lr-tb;fill:#000000;fill-opacity:1;fill-rule:nonzero;stroke:none"
         x="0 7.6677423 11.496 17.889526 24.283054 30.676582 36.424583"
         y="0"
         sodipodi:role="line"
         id="tspan16">Product</tspan><tspan
         style="font-variant:normal;font-weight:normal;font-size:11.496px;font-family:Helvetica;writing-mode:lr-tb;fill:#000000;fill-opacity:1;fill-rule:nonzero;stroke:none"
         x="-8.9474802 -1.2797383 4.4682617 10.861789 13.415832 19.809359 23.637617 30.031145 33.225101 35.779144 42.172672"
         y="13.6515"
         sodipodi:role="line"
         id="tspan17">Exploration</tspan></text>
    <path
       id="path17"
       d="M 0,0 H 32.76"
       style="fill:none;stroke:#000000;stroke-width:2;stroke-linecap:butt;stroke-linejoin:miter;stroke-miterlimit:10;stroke-dasharray:none;stroke-opacity:1"
       transform="matrix(0.95800522,0,0,0.95800522,488.58266,62.270342)"
       clip-path="url(#clipPath18)" />
    <path
       id="path19"
       d="M 0,0 -8,4 -6,0 -8,-4 Z"
       style="fill:#000000;fill-opacity:1;fill-rule:nonzero;stroke:#000000;stroke-width:2;stroke-linecap:butt;stroke-linejoin:miter;stroke-miterlimit:10;stroke-dasharray:none;stroke-opacity:1"
       transform="matrix(0.95800522,0,0,0.95800522,525.71494,62.270342)"
       clip-path="url(#clipPath20)" />
    <path
       id="path21"
       d="m 0,0 h 95 c 0.788,0 1.568,0.077 2.341,0.231 0.773,0.153 1.523,0.381 2.251,0.682 0.728,0.302 1.42,0.672 2.075,1.109 0.655,0.438 1.261,0.936 1.818,1.493 0.557,0.557 1.055,1.163 1.493,1.818 0.437,0.655 0.807,1.347 1.109,2.075 0.301,0.728 0.529,1.478 0.682,2.251 C 106.923,10.432 107,11.212 107,12 v 56 c 0,0.788 -0.077,1.568 -0.231,2.341 -0.153,0.773 -0.381,1.523 -0.682,2.251 -0.302,0.728 -0.672,1.42 -1.109,2.075 -0.438,0.655 -0.936,1.261 -1.493,1.818 -0.557,0.557 -1.163,1.055 -1.818,1.493 -0.655,0.437 -1.347,0.807 -2.075,1.109 -0.728,0.301 -1.478,0.529 -2.251,0.682 C 96.568,79.923 95.788,80 95,80 H 0 c -0.788,0 -1.568,-0.077 -2.341,-0.231 -0.773,-0.153 -1.523,-0.381 -2.251,-0.682 -0.728,-0.302 -1.42,-0.672 -2.075,-1.109 -0.655,-0.438 -1.261,-0.936 -1.818,-1.493 -0.557,-0.557 -1.055,-1.163 -1.493,-1.818 -0.437,-0.655 -0.807,-1.347 -1.109,-2.075 -0.301,-0.728 -0.529,-1.478 -0.682,-2.251 C -11.923,69.568 -12,68.788 -12,68 V 12 c 0,-0.788 0.077,-1.568 0.231,-2.341 0.153,-0.773 0.381,-1.523 0.682,-2.251 0.302,-0.728 0.672,-1.42 1.109,-2.075 C -9.54,4.678 -9.042,4.072 -8.485,3.515 -7.928,2.958 -7.322,2.46 -6.667,2.022 -6.012,1.585 -5.32,1.215 -4.592,0.913 -3.864,0.612 -3.114,0.384 -2.341,0.231 -1.568,0.077 -0.788,0 0,0 Z"
       style="fill:#ffffff;fill-opacity:1;fill-rule:nonzero;stroke:#000000;stroke-width:2;stroke-linecap:butt;stroke-linejoin:miter;stroke-miterlimit:4;stroke-dasharray:none;stroke-opacity:1"
       transform="matrix(0.95800522,0,0,0.95800522,386.0761,23.950133)"
       clip-path="url(#clipPath22)" />
    <text
       id="text22"
       xml:space="preserve"
       transform="matrix(1.3333334,0,0,1.3333334,414.90601,58.438261)"
       clip-path="url(#clipPath23)"><tspan
         style="font-variant:normal;font-weight:normal;font-size:11.496px;font-family:Helvetica;writing-mode:lr-tb;fill:#000000;fill-opacity:1;fill-rule:nonzero;stroke:none"
         x="0 8.302043 14.69557 17.889526"
         y="0"
         sodipodi:role="line"
         id="tspan22">Data</tspan><tspan
         style="font-variant:normal;font-weight:normal;font-size:11.496px;font-family:Helvetica;writing-mode:lr-tb;fill:#000000;fill-opacity:1;fill-rule:nonzero;stroke:none"
         x="-17.569481 -9.9017382 -6.0734806 0.32004681 6.7135739 13.107101 16.93536 23.328886 26.522844 29.076887 35.470413"
         y="13.6515"
         sodipodi:role="line"
         id="tspan23">Preparation</tspan></text>
    <path
       id="path24"
       d="m 0,0 c 14,0 21,5.667 21,17 0,11.333 3.92,17 11.76,17"
       style="fill:none;stroke:#000000;stroke-width:2;stroke-linecap:butt;stroke-linejoin:miter;stroke-miterlimit:10;stroke-dasharray:none;stroke-opacity:1"
       transform="matrix(0.95800522,0,0,0.95800522,335.30184,29.698162)"
       clip-path="url(#clipPath25)" />
    <path
       id="path26"
       d="M 0,0 -8,4 -6,0 -8,-4 Z"
       style="fill:#000000;fill-opacity:1;fill-rule:nonzero;stroke:#000000;stroke-width:2;stroke-linecap:butt;stroke-linejoin:miter;stroke-miterlimit:10;stroke-dasharray:none;stroke-opacity:1"
       transform="matrix(0.95800522,0,0,0.95800522,372.43412,62.27034)"
       clip-path="url(#clipPath27)" />
    <path
       id="path28"
       d="M 0,0 C 0,-16 160,-16 160,0 V 36 C 160,52 0,52 0,36 Z"
       style="fill:#ffffff;fill-opacity:1;fill-rule:nonzero;stroke:#000000;stroke-width:2;stroke-linecap:butt;stroke-linejoin:miter;stroke-miterlimit:10;stroke-dasharray:none;stroke-opacity:1"
       transform="matrix(0.95800522,0,0,0.95800522,182.021,12.454068)"
       clip-path="url(#clipPath29)" />
    <path
       id="path30"
       d="M 0,0 C 0,12 160,12 160,0"
       style="fill:none;stroke:#000000;stroke-width:2;stroke-linecap:butt;stroke-linejoin:miter;stroke-miterlimit:10;stroke-dasharray:none;stroke-opacity:1"
       transform="matrix(0.95800522,0,0,0.95800522,182.021,12.454068)"
       clip-path="url(#clipPath31)" />
    <text
       id="text31"
       xml:space="preserve"
       transform="matrix(1.3333334,0,0,1.3333334,203.75574,43.11026)"
       clip-path="url(#clipPath34)"><tspan
         style="font-variant:normal;font-weight:normal;font-size:11.496px;font-family:Helvetica;writing-mode:lr-tb;fill:#000000;fill-opacity:1;fill-rule:nonzero;stroke:none"
         x="0 8.302043 14.69557 17.889526 24.283054 27.477011 35.144753 40.892754 47.286282 53.67981 56.233852 61.98185 64.535896 67.729851 70.283897 76.677422"
         y="0"
         sodipodi:role="line"
         id="tspan31">Data Acquisition</tspan><tspan
         style="font-variant:normal;font-weight:700;font-size:11.496px;font-family:Helvetica;writing-mode:lr-tb;fill:#000000;fill-opacity:1;fill-rule:nonzero;stroke:none"
         x="-39.293327"
         y="-5.0295"
         id="tspan32">1</tspan><tspan
         style="font-variant:normal;font-weight:700;font-size:11.496px;font-family:Helvetica;writing-mode:lr-tb;fill:#000000;fill-opacity:1;fill-rule:nonzero;stroke:none"
         x="114.46568"
         y="-2.8740001"
         id="tspan33">2</tspan><tspan
         style="font-variant:normal;font-weight:700;font-size:11.496px;font-family:Helvetica;writing-mode:lr-tb;fill:#000000;fill-opacity:1;fill-rule:nonzero;stroke:none"
         x="222.24068 337.20068 -137.00932"
         y="10.059"
         sodipodi:role="line"
         id="tspan34">340</tspan></text>
    <path
       id="path35"
       d="M 0,0 C 14,0 21,-6.833 21,-20.5 21,-34.167 24.92,-41 32.76,-41"
       style="fill:none;stroke:#000000;stroke-width:2;stroke-linecap:butt;stroke-linejoin:miter;stroke-miterlimit:10;stroke-dasharray:none;stroke-opacity:1"
       transform="matrix(0.95800522,0,0,0.95800522,335.30184,101.54856)"
       clip-path="url(#clipPath36)" />
    <path
       id="path37"
       d="M 0,0 -8,4 -6,0 -8,-4 Z"
       style="fill:#000000;fill-opacity:1;fill-rule:nonzero;stroke:#000000;stroke-width:2;stroke-linecap:butt;stroke-linejoin:miter;stroke-miterlimit:10;stroke-dasharray:none;stroke-opacity:1"
       transform="matrix(0.95800522,0,0,0.95800522,372.43412,62.27034)"
       clip-path="url(#clipPath38)" />
    <path
       id="path39"
       d="M 0,0 C 0,-16 160,-16 160,0 V 37 C 160,53 0,53 0,37 Z"
       style="fill:#ffffff;fill-opacity:1;fill-rule:nonzero;stroke:#000000;stroke-width:2;stroke-linecap:butt;stroke-linejoin:miter;stroke-miterlimit:10;stroke-dasharray:none;stroke-opacity:1"
       transform="matrix(0.95800522,0,0,0.95800522,182.021,83.346455)"
       clip-path="url(#clipPath40)" />
    <path
       id="path41"
       d="M 0,0 C 0,12 160,12 160,0"
       style="fill:none;stroke:#000000;stroke-width:2;stroke-linecap:butt;stroke-linejoin:miter;stroke-miterlimit:10;stroke-dasharray:none;stroke-opacity:1"
       transform="matrix(0.95800522,0,0,0.95800522,182.021,83.346455)"
       clip-path="url(#clipPath42)" />
    <text
       id="text42"
       xml:space="preserve"
       transform="matrix(1.3333334,0,0,1.3333334,204.07014,114.00266)"
       clip-path="url(#clipPath43)"><tspan
         style="font-variant:normal;font-weight:normal;font-size:11.496px;font-family:Helvetica;writing-mode:lr-tb;fill:#000000;fill-opacity:1;fill-rule:nonzero;stroke:none"
         x="0 8.302043 14.69557 17.889526 24.283054 27.477011 35.144753 37.698795 47.275055 53.668583 56.222626 62.616154 65.810112 68.364151 74.757683"
         y="0"
         sodipodi:role="line"
         id="tspan42">Data Simulation</tspan></text>
    <path
       id="path44"
       d="m 0,0 c 13.333,0 20,-5.667 20,-17 0,-11.333 3.92,-17 11.76,-17"
       style="fill:none;stroke:#000000;stroke-width:2;stroke-linecap:butt;stroke-linejoin:miter;stroke-miterlimit:10;stroke-dasharray:none;stroke-opacity:1"
       transform="matrix(0.95800522,0,0,0.95800522,143.70079,62.27034)"
       clip-path="url(#clipPath45)" />
    <path
       id="path46"
       d="M 0,0 -8,4 -6,0 -8,-4 Z"
       style="fill:#000000;fill-opacity:1;fill-rule:nonzero;stroke:#000000;stroke-width:2;stroke-linecap:butt;stroke-linejoin:miter;stroke-miterlimit:10;stroke-dasharray:none;stroke-opacity:1"
       transform="matrix(0.95800522,0,0,0.95800522,179.87507,29.698162)"
       clip-path="url(#clipPath47)" />
    <path
       id="path48"
       d="M 0,0 C 13.333,0 20,6.833 20,20.5 20,34.167 23.92,41 31.76,41"
       style="fill:none;stroke:#000000;stroke-width:2;stroke-linecap:butt;stroke-linejoin:miter;stroke-miterlimit:10;stroke-dasharray:none;stroke-opacity:1"
       transform="matrix(0.95800522,0,0,0.95800522,143.70079,62.27034)"
       clip-path="url(#clipPath49)" />
    <path
       id="path50"
       d="M 0,0 -8,4 -6,0 -8,-4 Z"
       style="fill:#000000;fill-opacity:1;fill-rule:nonzero;stroke:#000000;stroke-width:2;stroke-linecap:butt;stroke-linejoin:miter;stroke-miterlimit:10;stroke-dasharray:none;stroke-opacity:1"
       transform="matrix(0.95800522,0,0,0.95800522,179.87507,101.54856)"
       clip-path="url(#clipPath51)" />
    <path
       id="path52"
       d="m 0,0 c 0,1.638 -0.08,3.271 -0.241,4.901 -0.16,1.63 -0.4,3.247 -0.72,4.854 -0.319,1.606 -0.717,3.192 -1.192,4.759 -0.475,1.567 -1.026,3.107 -1.653,4.62 -0.627,1.513 -1.326,2.992 -2.098,4.436 -0.772,1.444 -1.613,2.847 -2.523,4.209 -0.909,1.361 -1.884,2.675 -2.922,3.941 -1.039,1.266 -2.138,2.477 -3.296,3.635 -1.158,1.158 -2.369,2.257 -3.635,3.296 -1.266,1.038 -2.58,2.013 -3.942,2.922 -1.361,0.91 -2.764,1.751 -4.208,2.523 -1.444,0.772 -2.923,1.471 -4.436,2.098 -1.513,0.627 -3.053,1.178 -4.62,1.653 -1.567,0.475 -3.153,0.873 -4.759,1.192 -1.607,0.32 -3.224,0.56 -4.854,0.72 C -46.729,49.92 -48.362,50 -50,50 c -1.638,0 -3.271,-0.08 -4.901,-0.241 -1.63,-0.16 -3.247,-0.4 -4.854,-0.72 -1.606,-0.319 -3.192,-0.717 -4.759,-1.192 -1.567,-0.475 -3.107,-1.026 -4.62,-1.653 -1.513,-0.627 -2.992,-1.326 -4.436,-2.098 -1.444,-0.772 -2.847,-1.613 -4.209,-2.523 -1.361,-0.909 -2.675,-1.884 -3.941,-2.922 -1.266,-1.039 -2.477,-2.138 -3.635,-3.296 -1.158,-1.158 -2.257,-2.369 -3.296,-3.635 -1.038,-1.266 -2.013,-2.58 -2.922,-3.941 -0.91,-1.362 -1.751,-2.765 -2.523,-4.209 -0.772,-1.444 -1.471,-2.923 -2.098,-4.436 -0.627,-1.513 -1.178,-3.053 -1.653,-4.62 -0.475,-1.567 -0.873,-3.153 -1.192,-4.759 -0.32,-1.607 -0.56,-3.224 -0.72,-4.854 C -99.92,3.271 -100,1.638 -100,0 c 0,-1.638 0.08,-3.271 0.241,-4.901 0.16,-1.63 0.4,-3.247 0.72,-4.854 0.319,-1.606 0.717,-3.192 1.192,-4.759 0.475,-1.567 1.026,-3.107 1.653,-4.62 0.627,-1.513 1.326,-2.992 2.098,-4.436 0.772,-1.444 1.613,-2.847 2.523,-4.209 0.909,-1.361 1.884,-2.675 2.922,-3.941 1.039,-1.266 2.138,-2.477 3.296,-3.635 1.158,-1.158 2.369,-2.257 3.635,-3.296 1.266,-1.038 2.58,-2.013 3.941,-2.922 1.362,-0.91 2.765,-1.751 4.209,-2.523 1.444,-0.772 2.923,-1.471 4.436,-2.098 1.513,-0.627 3.053,-1.178 4.62,-1.653 1.567,-0.475 3.153,-0.873 4.759,-1.192 1.607,-0.32 3.224,-0.56 4.854,-0.72 1.63,-0.161 3.263,-0.241 4.901,-0.241 1.638,0 3.271,0.08 4.901,0.241 1.63,0.16 3.247,0.4 4.854,0.72 1.606,0.319 3.192,0.717 4.759,1.192 1.567,0.475 3.107,1.026 4.62,1.653 1.513,0.627 2.992,1.326 4.436,2.098 1.444,0.772 2.847,1.613 4.208,2.523 1.362,0.909 2.676,1.884 3.942,2.922 1.266,1.039 2.477,2.138 3.635,3.296 1.158,1.158 2.257,2.369 3.296,3.635 1.038,1.266 2.013,2.58 2.922,3.941 0.91,1.362 1.751,2.765 2.523,4.209 0.772,1.444 1.471,2.923 2.098,4.436 0.627,1.513 1.178,3.053 1.653,4.62 0.475,1.567 0.873,3.153 1.192,4.759 0.32,1.607 0.56,3.224 0.72,4.854 C -0.08,-3.271 0,-1.638 0,0 Z"
       style="fill:#ffffff;fill-opacity:1;fill-rule:nonzero;stroke:#000000;stroke-width:2;stroke-linecap:butt;stroke-linejoin:miter;stroke-miterlimit:4;stroke-dasharray:none;stroke-opacity:1"
       transform="matrix(0.95800522,0,0,0.95800522,143.70079,62.27034)"
       clip-path="url(#clipPath53)" />
    <text
       id="text53"
       xml:space="preserve"
       transform="matrix(1.3333334,0,0,1.3333334,52.72027,58.438261)"
       clip-path="url(#clipPath54)"><tspan
         style="font-variant:normal;font-weight:normal;font-size:11.496px;font-family:Helvetica;writing-mode:lr-tb;fill:#000000;fill-opacity:1;fill-rule:nonzero;stroke:none"
         x="0 8.302043 14.69557 17.889526 24.283054 27.477011 35.144753 41.53828 47.931808 51.760067 57.508068"
         y="0"
         sodipodi:role="line"
         id="tspan53">Data Source</tspan><tspan
         style="font-variant:normal;font-weight:normal;font-size:11.496px;font-family:Helvetica;writing-mode:lr-tb;fill:#000000;fill-opacity:1;fill-rule:nonzero;stroke:none"
         x="3.1879845 10.855727 16.603727 22.997253 25.551296 31.944824 35.773083 42.166611 45.360565 47.914608 54.308136"
         y="13.6515"
         sodipodi:role="line"
         id="tspan54">Exploration</tspan></text>
    <path
       id="path55"
       d="M 0,0 H 32.77"
       style="fill:none;stroke:#000000;stroke-width:2;stroke-linecap:butt;stroke-linejoin:miter;stroke-miterlimit:10;stroke-dasharray:none;stroke-opacity:1"
       transform="matrix(0.95800522,0,0,0.95800522,8.2388473,62.069159)"
       clip-path="url(#clipPath56)" />
    <path
       id="path57"
       d="M 0,0 -8,4 -6,0 -8,-4 Z"
       style="fill:#000000;fill-opacity:1;fill-rule:nonzero;stroke:#000000;stroke-width:2;stroke-linecap:butt;stroke-linejoin:miter;stroke-miterlimit:10;stroke-dasharray:none;stroke-opacity:1"
       transform="matrix(0.95800522,0,0,0.95800522,45.380711,62.069159)"
       clip-path="url(#clipPath58)" />
    <text
       id="text58"
       xml:space="preserve"
       transform="matrix(1.3333334,0,0,1.3333334,151.36481,103.46453)"
       clip-path="url(#clipPath59)"><tspan
         style="font-variant:normal;font-weight:700;font-size:11.496px;font-family:Helvetica;writing-mode:lr-tb;fill:#000000;fill-opacity:1;fill-rule:nonzero;stroke:none"
         x="0"
         y="0"
         id="tspan58">1</tspan><tspan
         style="font-variant:normal;font-weight:700;font-size:11.496px;font-family:Helvetica;writing-mode:lr-tb;fill:#000000;fill-opacity:1;fill-rule:nonzero;stroke:none"
         x="154.47606"
         y="-2.8740001"
         id="tspan59">2</tspan></text>
    <text
       id="text59"
       xml:space="preserve"
       transform="matrix(1.3333333,0,0,1.3333333,784.03867,60.254663)"><tspan
         style="font-variant:normal;font-weight:700;font-size:11.496px;font-family:Helvetica;writing-mode:lr-tb;fill:#000000;fill-opacity:1;fill-rule:nonzero;stroke:none"
         x="0"
         y="0"
         id="tspan60">5</tspan></text>
    <path
       id="path60"
       d="m 611.056,51.753 h 6.394 v 0.575 h -6.394 z"
       style="fill:#000000;fill-opacity:1;fill-rule:nonzero;stroke:none"
       transform="matrix(1.3333333,2.04e-5,2.04e-5,-1.3333333,-30.70402,131.8518)" />
  </g>
</svg>
